<svg width="43" height="43" viewBox="0 0 43 43" fill="none" xmlns="http://www.w3.org/2000/svg">
<g clip-path="url(#clip0_310_90)">
<rect x="3.3" y="11.3" width="9.4" height="28.4" fill="url(#paint0_linear_310_90)" stroke="#272727" stroke-width="0.6"/>
<path d="M28.208 33.88C29.28 33.88 30.152 33.744 30.824 33.472C31.512 33.2 32.048 32.848 32.432 32.416C32.816 31.984 33.08 31.496 33.224 30.952C33.368 30.408 33.44 29.856 33.44 29.296C33.44 28.656 33.352 28.08 33.176 27.568C33.016 27.056 32.728 26.624 32.312 26.272C31.912 25.92 31.376 25.648 30.704 25.456C30.032 25.264 29.184 25.168 28.16 25.168H22.496V33.88H28.208ZM22.496 11.104V19.744H26.72C27.616 19.744 28.424 19.68 29.144 19.552C29.864 19.424 30.472 19.2 30.968 18.88C31.48 18.56 31.864 18.12 32.12 17.56C32.392 17 32.528 16.296 32.528 15.448C32.528 14.616 32.424 13.928 32.216 13.384C32.008 12.824 31.688 12.376 31.256 12.04C30.824 11.704 30.272 11.464 29.6 11.32C28.944 11.176 28.16 11.104 27.248 11.104H22.496ZM27.248 5.032C29.664 5.032 31.72 5.256 33.416 5.704C35.112 6.152 36.496 6.784 37.568 7.6C38.64 8.416 39.416 9.408 39.896 10.576C40.392 11.744 40.64 13.048 40.64 14.488C40.64 15.272 40.528 16.032 40.304 16.768C40.08 17.488 39.728 18.168 39.248 18.808C38.768 19.432 38.152 20.008 37.4 20.536C36.648 21.064 35.744 21.52 34.688 21.904C36.992 22.464 38.696 23.368 39.8 24.616C40.904 25.864 41.456 27.48 41.456 29.464C41.456 30.952 41.168 32.336 40.592 33.616C40.016 34.896 39.168 36.016 38.048 36.976C36.944 37.92 35.576 38.664 33.944 39.208C32.312 39.736 30.448 40 28.352 40H14.384V5.032H27.248Z" fill="white"/>
<path d="M30.824 33.472L30.577 32.8472L30.5719 32.8492L30.824 33.472ZM32.432 32.416L32.9342 32.8624L32.9342 32.8624L32.432 32.416ZM33.224 30.952L33.8735 31.1239L33.8735 31.1239L33.224 30.952ZM33.176 27.568L32.5347 27.7684L32.5375 27.7775L32.5406 27.7864L33.176 27.568ZM32.312 26.272L31.8681 26.7765L31.878 26.7849L32.312 26.272ZM30.704 25.456L30.5194 26.102L30.5194 26.102L30.704 25.456ZM22.496 25.168V24.4961H21.8241V25.168H22.496ZM22.496 33.88H21.8241V34.5519H22.496V33.88ZM22.496 11.104V10.4321H21.8241V11.104H22.496ZM22.496 19.744H21.8241V20.4159H22.496V19.744ZM29.144 19.552L29.0264 18.8905L29.0264 18.8905L29.144 19.552ZM30.968 18.88L30.6119 18.3102L30.6038 18.3154L30.968 18.88ZM32.12 17.56L31.5156 17.2665L31.5122 17.2735L31.5089 17.2807L32.12 17.56ZM32.216 13.384L31.5861 13.6179L31.5884 13.6239L32.216 13.384ZM29.6 11.32L29.4559 11.9763L29.4592 11.977L29.6 11.32ZM33.416 5.704L33.2444 6.35359L33.2444 6.35359L33.416 5.704ZM37.568 7.6L37.1611 8.13461L37.1611 8.13461L37.568 7.6ZM39.896 10.576L39.2745 10.8314L39.2776 10.8386L39.896 10.576ZM40.304 16.768L40.9456 16.9676L40.9468 16.9636L40.304 16.768ZM39.248 18.808L39.7806 19.2177L39.7855 19.2111L39.248 18.808ZM37.4 20.536L37.0139 19.9861L37.0139 19.9861L37.4 20.536ZM34.688 21.904L34.4584 21.2726L32.3699 22.032L34.5293 22.5569L34.688 21.904ZM40.592 33.616L41.2047 33.8917L41.2047 33.8917L40.592 33.616ZM38.048 36.976L38.4846 37.4866L38.4853 37.4861L38.048 36.976ZM33.944 39.208L34.1508 39.8473L34.1565 39.8454L33.944 39.208ZM14.384 40H13.7121V40.6719H14.384V40ZM14.384 5.032V4.36012H13.7121V5.032H14.384ZM28.208 34.5519C29.3288 34.5519 30.2953 34.4108 31.0761 34.0948L30.5719 32.8492C30.0087 33.0772 29.2312 33.2081 28.208 33.2081V34.5519ZM31.071 34.0968C31.8303 33.7966 32.4635 33.3919 32.9342 32.8624L31.9298 31.9696C31.6325 32.3041 31.1937 32.6034 30.577 32.8472L31.071 34.0968ZM32.9342 32.8624C33.3861 32.3539 33.7018 31.7725 33.8735 31.1239L32.5745 30.7801C32.4582 31.2195 32.2459 31.6141 31.9298 31.9696L32.9342 32.8624ZM33.8735 31.1239C34.0323 30.5241 34.1119 29.9143 34.1119 29.296H32.7681C32.7681 29.7977 32.7037 30.2919 32.5745 30.7801L33.8735 31.1239ZM34.1119 29.296C34.1119 28.5949 34.0155 27.9433 33.8114 27.3496L32.5406 27.7864C32.6885 28.2167 32.7681 28.7171 32.7681 29.296H34.1119ZM33.8173 27.3676C33.6186 26.7318 33.2577 26.1921 32.746 25.7591L31.878 26.7849C32.1983 27.0559 32.4134 27.3802 32.5347 27.7684L33.8173 27.3676ZM32.7559 25.7676C32.2615 25.3326 31.6278 25.0212 30.8886 24.81L30.5194 26.102C31.1242 26.2748 31.5625 26.5074 31.8681 26.7764L32.7559 25.7676ZM30.8886 24.81C30.1357 24.5949 29.2203 24.4961 28.16 24.4961V25.8399C29.1477 25.8399 29.9283 25.9331 30.5194 26.102L30.8886 24.81ZM28.16 24.4961H22.496V25.8399H28.16V24.4961ZM21.8241 25.168V33.88H23.1679V25.168H21.8241ZM22.496 34.5519H28.208V33.2081H22.496V34.5519ZM21.8241 11.104V19.744H23.1679V11.104H21.8241ZM22.496 20.4159H26.72V19.0721H22.496V20.4159ZM26.72 20.4159C27.647 20.4159 28.4953 20.3497 29.2616 20.2135L29.0264 18.8905C28.3527 19.0103 27.585 19.0721 26.72 19.0721V20.4159ZM29.2616 20.2135C30.0491 20.0735 30.7457 19.823 31.3322 19.4446L30.6038 18.3154C30.1983 18.577 29.6789 18.7745 29.0264 18.8905L29.2616 20.2135ZM31.3241 19.4497C31.95 19.0585 32.4215 18.5165 32.7311 17.8393L31.5089 17.2807C31.3065 17.7235 31.01 18.0614 30.6119 18.3102L31.3241 19.4497ZM32.7244 17.8535C33.0539 17.1752 33.1999 16.3628 33.1999 15.448H31.8561C31.8561 16.2292 31.7301 16.8248 31.5156 17.2665L32.7244 17.8535ZM33.1999 15.448C33.1999 14.5663 33.0905 13.7899 32.8436 13.144L31.5884 13.6239C31.7575 14.0661 31.8561 14.6657 31.8561 15.448H33.1999ZM32.8458 13.1501C32.5985 12.4841 32.208 11.9293 31.6685 11.5097L30.8435 12.5703C31.168 12.8227 31.4175 13.1639 31.5862 13.6179L32.8458 13.1501ZM31.6685 11.5097C31.1389 11.0977 30.4871 10.823 29.7408 10.663L29.4592 11.977C30.0569 12.105 30.5091 12.3103 30.8435 12.5703L31.6685 11.5097ZM29.7441 10.6637C29.0274 10.5064 28.1925 10.4321 27.248 10.4321V11.7759C28.1275 11.7759 28.8606 11.8456 29.4559 11.9762L29.7441 10.6637ZM27.248 10.4321H22.496V11.7759H27.248V10.4321ZM27.248 5.70387C29.6262 5.70387 31.621 5.92476 33.2444 6.35359L33.5876 5.05441C31.819 4.58724 29.7018 4.36012 27.248 4.36012V5.70387ZM33.2444 6.35359C34.8797 6.78556 36.1769 7.38548 37.1611 8.13461L37.9749 7.06539C36.8151 6.18251 35.3443 5.51844 33.5876 5.05441L33.2444 6.35359ZM37.1611 8.13461C38.1446 8.88328 38.843 9.7813 39.2746 10.8314L40.5174 10.3206C39.989 9.0347 39.1354 7.94872 37.9749 7.06539L37.1611 8.13461ZM39.2776 10.8386C39.7339 11.9131 39.9681 13.1261 39.9681 14.488H41.3119C41.3119 12.9699 41.0501 11.5749 40.5144 10.3134L39.2776 10.8386ZM39.9681 14.488C39.9681 15.207 39.8656 15.901 39.6612 16.5724L40.9468 16.9636C41.1904 16.163 41.3119 15.337 41.3119 14.488H39.9681ZM39.6625 16.5684C39.4626 17.2108 39.1473 17.8225 38.7105 18.4049L39.7855 19.2111C40.3087 18.5135 40.6974 17.7652 40.9455 16.9676L39.6625 16.5684ZM38.7155 18.3984C38.2832 18.9603 37.7194 19.4908 37.0139 19.9861L37.7861 21.0859C38.5846 20.5252 39.2528 19.9037 39.7805 19.2176L38.7155 18.3984ZM37.0139 19.9861C36.3196 20.4736 35.4707 20.9045 34.4584 21.2726L34.9176 22.5354C36.0173 22.1355 36.9764 21.6544 37.7861 21.0859L37.0139 19.9861ZM34.5293 22.5569C36.7542 23.0976 38.3148 23.9511 39.2968 25.0612L40.3032 24.1708C39.0772 22.7849 37.2298 21.8304 34.8467 21.2511L34.5293 22.5569ZM39.2968 25.0612C40.2721 26.1637 40.7841 27.611 40.7841 29.464H42.1279C42.1279 27.349 41.5359 25.5643 40.3032 24.1708L39.2968 25.0612ZM40.7841 29.464C40.7841 30.8628 40.514 32.1521 39.9793 33.3403L41.2047 33.8917C41.822 32.5199 42.1279 31.0412 42.1279 29.464H40.7841ZM39.9793 33.3403C39.4459 34.5256 38.6597 35.5668 37.6108 36.4659L38.4853 37.4861C39.6763 36.4652 40.5861 35.2664 41.2047 33.8917L39.9793 33.3403ZM37.6114 36.4654C36.5842 37.3437 35.2962 38.049 33.7315 38.5706L34.1565 39.8454C35.8558 39.279 37.3038 38.4963 38.4846 37.4866L37.6114 36.4654ZM33.7372 38.5687C32.1849 39.071 30.3928 39.3281 28.352 39.3281V40.6719C30.5032 40.6719 32.4391 40.401 34.1508 39.8473L33.7372 38.5687ZM28.352 39.3281H14.384V40.6719H28.352V39.3281ZM15.0559 40V5.032H13.7121V40H15.0559ZM14.384 5.70387H27.248V4.36012H14.384V5.70387Z" fill="black"/>
</g>
<defs>
<linearGradient id="paint0_linear_310_90" x1="8" y1="11" x2="8" y2="40" gradientUnits="userSpaceOnUse">
<stop stop-color="#5076E9"/>
<stop offset="1" stop-color="#193A9D"/>
</linearGradient>
<clipPath id="clip0_310_90">
<rect width="43" height="43" fill="white"/>
</clipPath>
</defs>
</svg>
