<svg width="148" height="38" viewBox="0 0 148 38" fill="none" xmlns="http://www.w3.org/2000/svg">
<path d="M20.6699 30.88C21.7419 30.88 22.6139 30.744 23.2859 30.472C23.9739 30.2 24.5099 29.848 24.8939 29.416C25.2779 28.984 25.5419 28.496 25.6859 27.952C25.8299 27.408 25.9019 26.856 25.9019 26.296C25.9019 25.656 25.8139 25.08 25.6379 24.568C25.4779 24.056 25.1899 23.624 24.7739 23.272C24.3739 22.92 23.8379 22.648 23.1659 22.456C22.4939 22.264 21.6459 22.168 20.6219 22.168H14.9579V30.88H20.6699ZM14.9579 8.10401V16.744H19.1819C20.0779 16.744 20.8859 16.68 21.6059 16.552C22.3259 16.424 22.9339 16.2 23.4299 15.88C23.9419 15.56 24.3259 15.12 24.5819 14.56C24.8539 14 24.9899 13.296 24.9899 12.448C24.9899 11.616 24.8859 10.928 24.6779 10.384C24.4699 9.82401 24.1499 9.37601 23.7179 9.04001C23.2859 8.70401 22.7339 8.46401 22.0619 8.32001C21.4059 8.17601 20.6219 8.10401 19.7099 8.10401H14.9579ZM19.7099 2.03201C22.1259 2.03201 24.1819 2.25601 25.8779 2.70401C27.5739 3.15201 28.9579 3.78401 30.0299 4.60001C31.1019 5.41601 31.8779 6.40801 32.3579 7.57601C32.8539 8.74401 33.1019 10.048 33.1019 11.488C33.1019 12.272 32.9899 13.032 32.7659 13.768C32.5419 14.488 32.1899 15.168 31.7099 15.808C31.2299 16.432 30.6139 17.008 29.8619 17.536C29.1099 18.064 28.2059 18.52 27.1499 18.904C29.4539 19.464 31.1579 20.368 32.2619 21.616C33.3659 22.864 33.9179 24.48 33.9179 26.464C33.9179 27.952 33.6299 29.336 33.0539 30.616C32.4779 31.896 31.6299 33.016 30.5099 33.976C29.4059 34.92 28.0379 35.664 26.4059 36.208C24.7739 36.736 22.9099 37 20.8139 37H6.84593V2.03201H19.7099Z" fill="white"/>
<path d="M46.3312 12.112V37H38.8912V12.112H46.3312ZM47.0992 5.29601C47.0992 5.88801 46.9792 6.44801 46.7392 6.97601C46.4992 7.48801 46.1712 7.94401 45.7552 8.34401C45.3392 8.72801 44.8512 9.04001 44.2912 9.28001C43.7472 9.50401 43.1632 9.61601 42.5392 9.61601C41.9312 9.61601 41.3632 9.50401 40.8352 9.28001C40.3072 9.04001 39.8352 8.72801 39.4192 8.34401C39.0192 7.94401 38.6992 7.48801 38.4592 6.97601C38.2352 6.44801 38.1232 5.88801 38.1232 5.29601C38.1232 4.68801 38.2352 4.12001 38.4592 3.59201C38.6992 3.06401 39.0192 2.60001 39.4192 2.20001C39.8352 1.80001 40.3072 1.48801 40.8352 1.26401C41.3632 1.04001 41.9312 0.928009 42.5392 0.928009C43.1632 0.928009 43.7472 1.04001 44.2912 1.26401C44.8512 1.48801 45.3392 1.80001 45.7552 2.20001C46.1712 2.60001 46.4992 3.06401 46.7392 3.59201C46.9792 4.12001 47.0992 4.68801 47.0992 5.29601Z" fill="white"/>
<path d="M61.3841 37.384C60.2001 37.384 59.1521 37.216 58.2401 36.88C57.3441 36.528 56.5841 36.04 55.9601 35.416C55.3521 34.776 54.8881 34.008 54.5681 33.112C54.2481 32.216 54.0881 31.216 54.0881 30.112V17.248H51.9761C51.5921 17.248 51.2641 17.128 50.9921 16.888C50.7201 16.632 50.5841 16.264 50.5841 15.784V12.88L54.5441 12.112L56.0081 6.04001C56.2001 5.27201 56.7441 4.88801 57.6401 4.88801H61.5281V12.16H67.6961V17.248H61.5281V29.608C61.5281 30.184 61.6641 30.664 61.9361 31.048C62.2241 31.416 62.6321 31.6 63.1601 31.6C63.4321 31.6 63.6561 31.576 63.8321 31.528C64.0241 31.464 64.1841 31.4 64.3121 31.336C64.4561 31.256 64.5841 31.192 64.6961 31.144C64.8241 31.08 64.9681 31.048 65.1281 31.048C65.3521 31.048 65.5281 31.104 65.6561 31.216C65.8001 31.312 65.9441 31.472 66.0881 31.696L68.3441 35.224C67.3841 35.944 66.3041 36.488 65.1041 36.856C63.9041 37.208 62.6641 37.384 61.3841 37.384Z" fill="white"/>
<path d="M87.1076 21.568C87.1076 20.976 87.0276 20.4 86.8676 19.84C86.7236 19.28 86.4756 18.784 86.1236 18.352C85.7876 17.904 85.3396 17.544 84.7796 17.272C84.2196 17 83.5396 16.864 82.7396 16.864C81.3316 16.864 80.2276 17.272 79.4276 18.088C78.6276 18.888 78.0996 20.048 77.8436 21.568H87.1076ZM77.7476 25.888C77.9876 27.968 78.6196 29.48 79.6436 30.424C80.6676 31.352 81.9876 31.816 83.6036 31.816C84.4676 31.816 85.2116 31.712 85.8356 31.504C86.4596 31.296 87.0116 31.064 87.4916 30.808C87.9876 30.552 88.4356 30.32 88.8356 30.112C89.2516 29.904 89.6836 29.8 90.1316 29.8C90.7236 29.8 91.1716 30.016 91.4756 30.448L93.6356 33.112C92.8676 33.992 92.0356 34.712 91.1396 35.272C90.2596 35.816 89.3476 36.248 88.4036 36.568C87.4756 36.872 86.5396 37.08 85.5956 37.192C84.6676 37.32 83.7796 37.384 82.9316 37.384C81.1876 37.384 79.5476 37.104 78.0116 36.544C76.4916 35.968 75.1556 35.12 74.0036 34C72.8676 32.88 71.9636 31.488 71.2916 29.824C70.6356 28.16 70.3076 26.224 70.3076 24.016C70.3076 22.352 70.5876 20.776 71.1476 19.288C71.7236 17.8 72.5396 16.496 73.5956 15.376C74.6676 14.256 75.9556 13.368 77.4596 12.712C78.9796 12.056 80.6916 11.728 82.5956 11.728C84.2436 11.728 85.7476 11.984 87.1076 12.496C88.4836 13.008 89.6596 13.752 90.6356 14.728C91.6276 15.704 92.3956 16.904 92.9396 18.328C93.4996 19.736 93.7796 21.336 93.7796 23.128C93.7796 23.688 93.7556 24.144 93.7076 24.496C93.6596 24.848 93.5716 25.128 93.4436 25.336C93.3156 25.544 93.1396 25.688 92.9156 25.768C92.7076 25.848 92.4356 25.888 92.0996 25.888H77.7476Z" fill="white"/>
<path d="M105.327 14.8C105.807 14.352 106.303 13.936 106.815 13.552C107.327 13.168 107.871 12.848 108.447 12.592C109.039 12.32 109.671 12.112 110.343 11.968C111.031 11.808 111.775 11.728 112.575 11.728C113.935 11.728 115.135 11.968 116.175 12.448C117.231 12.912 118.119 13.568 118.839 14.416C119.559 15.248 120.103 16.248 120.471 17.416C120.839 18.568 121.023 19.824 121.023 21.184V37H113.583V21.184C113.583 19.968 113.303 19.024 112.743 18.352C112.183 17.664 111.359 17.32 110.271 17.32C109.455 17.32 108.687 17.496 107.967 17.848C107.263 18.184 106.575 18.648 105.903 19.24V37H98.4626V12.112H103.071C103.999 12.112 104.607 12.528 104.895 13.36L105.327 14.8Z" fill="white"/>
<path d="M145.086 18.016C144.862 18.288 144.646 18.504 144.438 18.664C144.23 18.824 143.934 18.904 143.55 18.904C143.182 18.904 142.846 18.816 142.542 18.64C142.254 18.464 141.926 18.272 141.558 18.064C141.19 17.84 140.758 17.64 140.262 17.464C139.766 17.288 139.15 17.2 138.414 17.2C137.502 17.2 136.71 17.368 136.038 17.704C135.382 18.04 134.838 18.52 134.406 19.144C133.974 19.768 133.654 20.536 133.446 21.448C133.238 22.344 133.134 23.36 133.134 24.496C133.134 26.88 133.59 28.712 134.502 29.992C135.43 31.272 136.702 31.912 138.318 31.912C139.182 31.912 139.862 31.808 140.358 31.6C140.87 31.376 141.302 31.136 141.654 30.88C142.006 30.608 142.326 30.36 142.614 30.136C142.918 29.912 143.294 29.8 143.742 29.8C144.334 29.8 144.782 30.016 145.086 30.448L147.246 33.112C146.478 33.992 145.67 34.712 144.822 35.272C143.974 35.816 143.102 36.248 142.206 36.568C141.326 36.872 140.438 37.08 139.542 37.192C138.646 37.32 137.774 37.384 136.926 37.384C135.406 37.384 133.95 37.096 132.558 36.52C131.182 35.944 129.966 35.112 128.91 34.024C127.87 32.92 127.038 31.568 126.414 29.968C125.806 28.368 125.502 26.544 125.502 24.496C125.502 22.704 125.766 21.032 126.294 19.48C126.838 17.912 127.63 16.56 128.67 15.424C129.726 14.272 131.022 13.368 132.558 12.712C134.11 12.056 135.902 11.728 137.934 11.728C139.886 11.728 141.598 12.04 143.07 12.664C144.542 13.288 145.87 14.2 147.054 15.4L145.086 18.016Z" fill="white"/>
<path d="M0 18H3.46199V38H0V18Z" fill="url(#paint0_linear_314_9)"/>
<defs>
<linearGradient id="paint0_linear_314_9" x1="73.6228" y1="0.928009" x2="73.6228" y2="38" gradientUnits="userSpaceOnUse">
<stop stop-color="#5076E9"/>
<stop offset="1" stop-color="#193A9D"/>
</linearGradient>
</defs>
</svg>
