<svg width="28" height="28" viewBox="0 0 28 28" fill="none" xmlns="http://www.w3.org/2000/svg">
<path d="M0 2.00572C0 0.898625 0.926844 0 2.06938 0H25.9306C27.0736 0 28 0.898625 28 2.00572V25.9946C28 27.102 27.0736 28 25.9306 28H2.06938C0.926953 28 0 27.1021 0 25.9949V2.00539V2.00572Z" fill="white"/>
<path d="M8.50893 23.4321V10.8264H4.31899V23.4321H8.50937H8.50893ZM6.41483 9.10561C7.87565 9.10561 8.7851 8.13765 8.7851 6.92796C8.75776 5.69071 7.87565 4.74976 6.44262 4.74976C5.0086 4.74976 4.07202 5.69071 4.07202 6.92785C4.07202 8.13754 4.98115 9.10551 6.38738 9.10551H6.41451L6.41483 9.10561ZM10.8281 23.4321H15.0177V16.3933C15.0177 16.017 15.0451 15.6398 15.1558 15.3711C15.4585 14.618 16.1479 13.8385 17.3056 13.8385C18.8214 13.8385 19.4281 14.9944 19.4281 16.6891V23.4321H23.6176V16.2044C23.6176 12.3326 21.5508 10.5309 18.7942 10.5309C16.5342 10.5309 15.5416 11.7941 14.9902 12.6544H15.0181V10.8268H10.8283C10.883 12.0094 10.828 23.4325 10.828 23.4325L10.8281 23.4321Z" fill="black"/>
</svg>
